<svg xmlns="http://www.w3.org/2000/svg" xmlns:xlink="http://www.w3.org/1999/xlink" width="862.5" height="333.5" viewBox="0 0 862.5 333.5"><defs><clipPath id="a"><rect width="862.5" height="333.5" rx="24" fill="none"/></clipPath><clipPath id="b"><rect width="862.549" height="115.76" fill="none"/></clipPath><linearGradient id="c" x1="-37.268" y1="54.676" x2="-37.284" y2="54.677" gradientUnits="objectBoundingBox"><stop offset="0" stop-color="#ffd4d4"/><stop offset="1" stop-color="#faa"/></linearGradient><linearGradient id="d" x1="-40.993" y1="54.676" x2="-41.012" y2="54.677" xlink:href="#c"/><linearGradient id="e" x1="-28.227" y1="31.08" x2="-28.232" y2="31.07" gradientUnits="objectBoundingBox"><stop offset="0" stop-color="#3d3567"/><stop offset="1" stop-color="#4d4866"/></linearGradient><linearGradient id="f" y1="0.5" x2="1" y2="0.5" gradientUnits="objectBoundingBox"><stop offset="0" stop-color="#b3cbf6" stop-opacity="0"/><stop offset="1" stop-color="#b3cbf6"/></linearGradient></defs><g transform="translate(-118.126 -377.219)"><g transform="translate(118.126 377.219)" clip-path="url(#a)"><rect width="862.549" height="304.376" rx="24" transform="translate(-0.207 0.043)" fill="#eaf0fd"/><g transform="translate(-0.207 -0.715)"><g clip-path="url(#b)"><g transform="translate(-66.716 21.138)"><path d="M471.962,489.89a52.054,52.054,0,0,0-9.882.952,52.89,52.89,0,0,0-70.9-23.871A57.735,57.735,0,0,0,332.47,443.8a61.793,61.793,0,0,0-95.256-6.2,33.557,33.557,0,0,0-40.108,4.972,57.617,57.617,0,0,0-77.442-2.39,57.673,57.673,0,0,0-85.112,45.54A33.587,33.587,0,1,0,48.5,528.645a57.621,57.621,0,0,0,80.89,6.019,57.684,57.684,0,0,0,83.275-35.292,33.628,33.628,0,0,0,11.186.746,61.853,61.853,0,0,0,77.324,38.661,57.64,57.64,0,0,0,73.661,10.31,52.836,52.836,0,0,0,51.3,16.89,51.841,51.841,0,1,0,45.822-76.089Z" transform="translate(15.719 -418.067)" fill="#fff"/><g transform="translate(0.003)"><path d="M-12.861,591.658a33.6,33.6,0,0,1,47.4-42.731c-.147,1.671-.222,3.37-.222,5.078" transform="translate(15.714 -481.286)" fill="none" stroke="#eaf0fd" stroke-linecap="round" stroke-linejoin="round" stroke-width="2"/><path d="M421.831,474.02a57.473,57.473,0,0,0-11.9-16.407,33.6,33.6,0,0,1,40.1-4.977" transform="translate(-197.108 -433.117)" fill="none" stroke="#eaf0fd" stroke-linecap="round" stroke-linejoin="round" stroke-width="2"/><path d="M900.409,571.013a51.864,51.864,0,0,1,77.882,61.519" transform="translate(-442.348 -489.891)" fill="none" stroke="#eaf0fd" stroke-linecap="round" stroke-linejoin="round" stroke-width="2"/><path d="M805.724,525.365a56.834,56.834,0,0,0-7.636-15.013,52.907,52.907,0,0,1,70.9,23.867" transform="translate(-391.187 -461.453)" fill="none" stroke="#eaf0fd" stroke-linecap="round" stroke-linejoin="round" stroke-width="2"/><path d="M84.954,514.146a57.349,57.349,0,0,1-.6-8.31c0-1.708.074-3.407.222-5.078A57.675,57.675,0,0,1,194.1,481.036" transform="translate(-34.32 -433.117)" fill="none" stroke="#eaf0fd" stroke-linecap="round" stroke-linejoin="round" stroke-width="2"/><path d="M279.44,474.3a57.829,57.829,0,0,0-24.4-25.806,57.711,57.711,0,0,1,89.348,18.789" transform="translate(-119.661 -426.386)" fill="none" stroke="#eaf0fd" stroke-linecap="round" stroke-linejoin="round" stroke-width="2"/><path d="M691.132,492.329A61.453,61.453,0,0,0,680.7,468.341a57.761,57.761,0,0,1,58.695,23.175,56.832,56.832,0,0,1,7.636,15.013" transform="translate(-332.492 -442.618)" fill="none" stroke="#eaf0fd" stroke-linecap="round" stroke-linejoin="round" stroke-width="2"/><path d="M464.313,458.406A61.844,61.844,0,0,1,572.5,443.79h.009a61.454,61.454,0,0,1,10.433,23.988" transform="translate(-224.299 -418.067)" fill="none" stroke="#eaf0fd" stroke-linecap="round" stroke-linejoin="round" stroke-width="2"/></g></g><g transform="translate(583.558 41.457)"><path d="M1592.94,504.083a32.89,32.89,0,0,0-6.244.6,33.416,33.416,0,0,0-44.8-15.082,36.475,36.475,0,0,0-37.093-14.642,39.042,39.042,0,0,0-60.183-3.917,21.2,21.2,0,0,0-25.34,3.142,36.4,36.4,0,0,0-48.927-1.51,36.438,36.438,0,0,0-53.774,28.771,21.22,21.22,0,1,0,8.816,27.121,36.406,36.406,0,0,0,51.106,3.8,36.445,36.445,0,0,0,52.613-22.3,21.242,21.242,0,0,0,7.067.471,39.079,39.079,0,0,0,48.854,24.426,36.416,36.416,0,0,0,46.539,6.513,33.383,33.383,0,0,0,32.412,10.671,32.753,32.753,0,1,0,28.95-48.073Z" transform="translate(-1284.829 -458.705)" fill="#fff"/><g transform="translate(0.002)"><path d="M1286.64,568.379a21.227,21.227,0,0,1,29.949-27c-.094,1.056-.14,2.129-.14,3.208" transform="translate(-1284.832 -498.646)" fill="none" stroke="#eaf0fd" stroke-linecap="round" stroke-linejoin="round" stroke-width="2"/><path d="M1561.27,494.055a36.313,36.313,0,0,0-7.519-10.366,21.23,21.23,0,0,1,25.335-3.145" transform="translate(-1419.292 -468.214)" fill="none" stroke="#eaf0fd" stroke-linecap="round" stroke-linejoin="round" stroke-width="2"/><path d="M1863.64,555.336a32.767,32.767,0,0,1,49.205,38.868" transform="translate(-1574.234 -504.083)" fill="none" stroke="#eaf0fd" stroke-linecap="round" stroke-linejoin="round" stroke-width="2"/><path d="M1803.81,526.495a35.907,35.907,0,0,0-4.824-9.485,33.426,33.426,0,0,1,44.8,15.079" transform="translate(-1541.911 -486.116)" fill="none" stroke="#eaf0fd" stroke-linecap="round" stroke-linejoin="round" stroke-width="2"/><path d="M1348.43,519.407a36.221,36.221,0,0,1-.379-5.25c0-1.079.047-2.152.14-3.208a36.439,36.439,0,0,1,69.2-12.46" transform="translate(-1316.444 -468.214)" fill="none" stroke="#eaf0fd" stroke-linecap="round" stroke-linejoin="round" stroke-width="2"/><path d="M1471.31,494.236a36.536,36.536,0,0,0-15.418-16.3,36.462,36.462,0,0,1,56.45,11.871" transform="translate(-1370.362 -463.961)" fill="none" stroke="#eaf0fd" stroke-linecap="round" stroke-linejoin="round" stroke-width="2"/><path d="M1731.42,505.623a38.831,38.831,0,0,0-6.592-15.155,36.5,36.5,0,0,1,37.083,14.642,35.905,35.905,0,0,1,4.824,9.485" transform="translate(-1504.828 -474.216)" fill="none" stroke="#eaf0fd" stroke-linecap="round" stroke-linejoin="round" stroke-width="2"/><path d="M1663.06,490.112a38.831,38.831,0,0,0-6.592-15.156h-.006a39.084,39.084,0,0,0-68.35,9.234" transform="translate(-1436.472 -458.705)" fill="#fff"/></g></g><g transform="translate(550.834 84.686)"><path d="M1219.38,576.448l29.71-10.3a32.726,32.726,0,0,1,18.572-.847l14.834,3.669,69.171-19.129a129.506,129.506,0,0,1,53.245-3.323L1478,557.205l24.6-7.855a36.521,36.521,0,0,1,36.934,8.966l17.939,17.939H1219.38" transform="translate(-1219.381 -545.161)" fill="#92b5f2"/><path d="M1370.62,575.133h0a12.92,12.92,0,0,1-12.866,3.318l-12.139-3.592,64.835-17.93-23.411,12.1a2.507,2.507,0,0,0-1.278,2.849h0A1.7,1.7,0,0,1,1384.1,574l-10.586-.069A4.027,4.027,0,0,0,1370.62,575.133Z" transform="translate(-1282.497 -551.045)" fill="#b3cbf6"/></g><g transform="translate(-35.701 25.456)"><path d="M403.96,517.216l-123.02-.21-18.41-.035L46.31,516.6,50.1,483.35l39.49-52.87a9.4,9.4,0,0,1,13.9-1.29l58.775,54.16,32.32-17.455a16.66,16.66,0,0,1,14.04-.83l25.645,10.155,40.165,15.9,13.685-2.7,14.76-2.91a39.438,39.438,0,0,1,21.51,1.78Z" transform="translate(-46.31 -426.702)" fill="#92b5f2"/><path d="M430.85,547.775l30.7,17.75-18.41-.035-35.615-9.76,16.955-17.62-9.6-14.37,40.165,15.905Z" transform="translate(-226.915 -475.221)" fill="#b3cbf6"/><path d="M190.3,458.988l24.4,33.848L203.642,515.4l30.621-15.9Z" transform="translate(-118.308 -442.845)" fill="#b3cbf6"/></g></g></g><rect width="862.549" height="112.662" transform="translate(-0.207 -0.715)" fill="none"/><g transform="translate(249.816 85.37)"><path d="M788.881,604.135l9.373-1.365,2.4,16.466-9.372,1.365,2.85,19.57-21.343,3.107-2.849-19.569L734.281,628.9l-3.167-12.862,28.272-64.781-.027-.19L780.7,547.96Zm-37.935,5.524,16.593-2.416-4.132-28.372-1.016,2.347Z" transform="translate(-674.436 -547.96)" fill="#b3cbf6"/><path d="M955.967,647.79q-3.307,18.589-13.451,27.183t-25.328,5.894q-15.31-2.725-21.886-14.361t-3.289-30.1L895,619.649q3.308-18.586,13.45-27.183t25.391-5.883q15.248,2.714,21.823,14.349t3.279,30.161ZM938.2,624.542q1.76-9.891.046-15.235a8.772,8.772,0,0,0-7.323-6.34,8.561,8.561,0,0,0-8.777,3.118q-3.3,4.094-5.122,13.26l-4.171,23.44q-1.828,10.271-.091,15.487a8.8,8.8,0,0,0,7.345,6.215,8.687,8.687,0,0,0,8.826-3.208q3.407-4.172,5.231-14.052Z" transform="translate(-754.338 -566.946)" fill="#b3cbf6"/><path d="M1118.96,619.64l9.31,1.746-3.07,16.354-9.309-1.746-3.645,19.437-21.2-3.976,3.646-19.436-35.414-6.642,1.172-13.194,47.738-52.125.036-.189,21.2,3.976Zm-37.679-7.067,16.48,3.091,5.286-28.18-1.722,1.891Z" transform="translate(-838.52 -553.915)" fill="#b3cbf6"/><rect width="378.695" height="45.359" transform="translate(0 88.363)" fill="#eaf0fd"/><g transform="translate(42.228 86.155)"><rect width="23.265" height="4.417" rx="2.208" transform="translate(61.928 10.613)" fill="#eaf0fd"/><rect width="23.265" height="4.417" rx="2.208" transform="translate(293.066)" fill="#d5e3fa"/><rect width="47.085" height="4.417" rx="2.208" transform="translate(304.698 24.212)" fill="#d5e3fa"/><rect width="25.044" height="4.417" rx="2.208" transform="translate(319.875 26.904)" fill="#d5e3fa"/><rect width="25.044" height="4.417" rx="2.208" transform="translate(312.774 30.06)" fill="#d5e3fa"/><rect width="9.772" height="3.221" rx="1.61" transform="translate(330.822 37.042)" fill="#d5e3fa"/><rect width="23.265" height="4.417" rx="2.208" transform="translate(184.899 15.362)" fill="#d5e3fa"/><path d="M904.055,720.27v.13H704.617a2.352,2.352,0,0,0-2.4,2.3v5.779a2.352,2.352,0,0,0,2.4,2.3h51.924a2.352,2.352,0,0,1,2.4,2.3h0a2.352,2.352,0,0,1-2.4,2.3h-7.755a2.352,2.352,0,0,0-2.4,2.3v5.779a2.352,2.352,0,0,0,2.4,2.3h21.558a2.352,2.352,0,0,1,2.4,2.3h0a2.352,2.352,0,0,0,2.4,2.3H857.82a2.352,2.352,0,0,0,2.4-2.3h0a2.352,2.352,0,0,1,2.4-2.3h15.587a2.352,2.352,0,0,0,2.4-2.3v-5.779a2.352,2.352,0,0,0-2.4-2.3H848.824a2.352,2.352,0,0,1-2.4-2.3h0a2.352,2.352,0,0,1,2.4-2.3h52.827a2.352,2.352,0,0,0,2.4-2.3V727.16a2.352,2.352,0,0,1,2.4-2.3h82.667a2.352,2.352,0,0,0,2.4-2.3h0a2.352,2.352,0,0,0-2.4-2.3Z" transform="translate(-702.213 -720.27)" fill="#d5e3fa"/></g></g><path d="M1124.79,902.6" transform="translate(-621.457 -639.91)" fill="#fff"/><path d="M1342.57,758.749H1288.1a1,1,0,0,1-.615-.211l-10.222-7.938a1,1,0,0,1,.616-1.8h69.65a1,1,0,0,1,.851,1.534l-4.956,7.938A1,1,0,0,1,1342.57,758.749Z" transform="translate(-697.5 -563.012)" fill="#00ae5b"/><g transform="translate(622.24 161.016)"><path d="M1367.97,716.312l-1.7,2.341,1.36,3.2.253-.2,1.078,3.109-1.5,6.736h10.805l-1.418-6.735.941-8.317a7.024,7.024,0,0,0-.768-.778,5.677,5.677,0,0,0-3.457-1.391,7.745,7.745,0,0,0-4.27,1.085,6.919,6.919,0,0,0-1.324.95Z" transform="translate(-1364.438 -706.753)" fill="#fac613"/><g transform="translate(6.722 5.84)"><path d="M1376.21,712.1q-.321,3.316,0,3.422t2.284-2.291v-2.3Z" transform="translate(-1376.05 -710.93)" fill="#fcc3c2"/></g><path d="M1376.28,712.1q-.066.716-.09,1.029-.118,1.536,2.375-.925V710.93Z" transform="translate(-1369.392 -705.09)" fill="#fcc3c2"/><g transform="translate(4.477)"><path d="M1373.63,706.115q.054,3.4,1.964,3.4t2.256-3.064l-.191-1.336Z" transform="translate(-1372.594 -702.184)" fill="#fcc3c2"/><path d="M1375.94,702.93q-3.32,1.476-4.2-.255c-.885-1.731,1.814-4.392,4.191-3.066q2.378,1.326.991,4.368h-.9Z" transform="translate(-1371.56 -699.251)" fill="#182245"/><path d="M1380.48,708.1q.336-.79.882-.542c.546.247.143,1.432-.407,1.505Z" transform="translate(-1376.019 -703.376)" fill="#fcc3c2"/></g><path d="M1381.37,720.15l-1.916,6.031,4.123,1.15s2.128-7.834.8-8.982S1381.37,720.15,1381.37,720.15Z" transform="translate(-1371.031 -708.668)" fill="#f4ae00"/><g transform="translate(0 6.623)"><rect width="1.199" height="22.488" rx="0.599" transform="translate(0 0.356) rotate(-17.269)" fill="#f6583a"/><rect width="3.896" height="10.167" rx="0.821" transform="translate(4.931 20.76) rotate(-17.269)" fill="#f6583a"/></g><path d="M1365.38,717.6l.651,3.865a1.135,1.135,0,0,1-1.6.786c-.033-.01-.066-.021-.1-.034a1.422,1.422,0,0,1-.823-1.835c.018-.049.423-2.73.423-2.73l-.032-.592c-.244-1.429.55-2.352.693-2.219a3.693,3.693,0,0,1,.788,2.759Z" transform="translate(-1363.008 -707.042)" fill="#fcc3c2"/><path d="M1369.13,730.654l7.046,1.77a1.233,1.233,0,0,1,.9,1.5c-.007.028-.015.056-.024.083a1.185,1.185,0,0,1-1.495.757,1.248,1.248,0,0,1-.122-.047l-5.976-2.662-1.339-.27c-.9-.625-.719-1.145-.615-1.268C1367.66,730.328,1367.83,730.213,1369.13,730.654Z" transform="translate(-1365.01 -714.8)" fill="#fcc3c2"/></g><path d="M1076.74,856.375h-15.717a2.174,2.174,0,0,1-2.173-2.173V798.224a2.171,2.171,0,0,0-2.349-2.167c-58.8,4.86-171.771,18.252-237.525,30.531Q799,830.318,779.7,834.374a2.161,2.161,0,0,1-.443.045H650.467a8.18,8.18,0,0,0-8.14,6.922,6.054,6.054,0,0,1-5.99,5.183H589.832a6.052,6.052,0,0,0-6.053,6.053V851.6a6.017,6.017,0,0,1-5.359,6.013,33.821,33.821,0,0,1-3.388.17h-20.7a9.254,9.254,0,0,1-9.253-9.252h0a9.254,9.254,0,0,0-9.253-9.253H464.563a34.413,34.413,0,0,1-28.956-15.569,32.425,32.425,0,0,0-27.281-14.869H286.332a34.636,34.636,0,0,0-34.632,34.63v10.058a34.637,34.637,0,0,0,34.638,34.638H288.1a2.215,2.215,0,0,1,1.942,1.2,7.05,7.05,0,0,0,6.223,3.729h298.5l1.711.82a8.285,8.285,0,0,0,6.332,3.155h473.935c5.03,0,9.1-5.02,9.1-11.215v-18.26C1085.85,861.4,1081.77,856.375,1076.74,856.375Z" transform="translate(-184.911 -586.635)" fill="#fff"/><g transform="translate(282.784 206.15)"><path d="M690.791,810.234a6.2,6.2,0,1,0-.9,12.331c.2,0,.406-.012.6-.03.774,4.265,2.543,10.523,2.543,10.523s-6.552,3.109-6,6,1.333,5.663,1.333,5.663l26.682-6.03L713.575,812.7a2.769,2.769,0,0,0-2.7-2.611C705.572,809.968,693.633,809.76,690.791,810.234Z" transform="translate(-683.695 -799.728)" fill="#f6583a"/><g transform="translate(8.751)"><g transform="translate(5.478 40.799)"><g transform="translate(13.779 52.741)"><path d="M739.711,976.6l.024,3.172h7.68l-3.639-1.878.23-1.294Z" transform="translate(-739.711 -976.598)" fill="url(#c)"/><path d="M739.731,979.144l.014,1.9h7.68l-3.639-1.878Z" transform="translate(-739.721 -977.871)" fill="#0073e6"/></g><path d="M712.521,976.6l.169,3.172h6.477l-2.35-1.586V976.6Z" transform="translate(-712.337 -923.857)" fill="url(#d)"/><path d="M712.694,979.806l.083,1.55h6.477l-2.35-1.586Z" transform="translate(-712.424 -925.443)" fill="#0073e6"/><path d="M734.879,924.585h5.23l4.176-28.576-2.681-23.1-10.818-.625,5.353,23.694Z" transform="translate(-721.47 -871.699)" fill="#ffbf00"/><path d="M738.608,872.283h-7.822q3.808,16.679,5.186,20.769Q736.637,895.025,738.608,872.283Z" transform="translate(-721.469 -871.7)" fill="#f5d49a"/><path d="M712.153,924.18h4.753l6.7-53.064-11.094.6Q712.516,900.869,712.153,924.18Z" transform="translate(-712.153 -871.116)" fill="#ffbf00"/></g><path d="M748.878,831.016l1.74,2.512,10.809-6.976.995-1.422a5.387,5.387,0,0,1,1.158-1.263q.17-.019-.283,1.318a3.089,3.089,0,0,0,1.14-.2c.821-.455,1.555-.824,1.679-.717.237.208-1.264,2.484-2.82,3.38s-11.271,12.124-13.712,11.969q-2.441-.154-5.547-6.5Z" transform="translate(-722.617 -806.693)" fill="#fcc3c2"/><path d="M742.165,817.828a4.8,4.8,0,0,1,3.632,3.458c.734,2.651,1.506,7.907,3.164,8.188a9.511,9.511,0,0,1-5.674,2.074L740.58,820.4Z" transform="translate(-720.889 -803.673)" fill="#0073e6"/><g transform="translate(9.214)"><path d="M729.1,812.887q.243,1.769.394,3.01a1.771,1.771,0,0,1-2.339,2.087A2.245,2.245,0,0,1,725.4,815.1q.2-.972.49-3.25Z" transform="translate(-722.476 -800.682)" fill="#d5e1ff"/><path d="M728.9,811.418q.242,1.769.394,3.01a1.771,1.771,0,0,1-2.339,2.086,2.245,2.245,0,0,1-1.76-2.889q.2-.971.491-3.25Z" transform="translate(-722.377 -799.947)" fill="#fcc3c2"/><path d="M729.162,812.03l.3,2.157q-1.6-.392-2.26-.609a7.647,7.647,0,0,1-1.545-.76l.179-1.219Z" transform="translate(-722.641 -800.559)" fill="#faa" opacity="0.452"/><path d="M720.376,798.011q-2-5.948,1.337-6.071,4.973-4.41,7.355-.788T727.76,798.2Z" transform="translate(-719.626 -789.519)" fill="url(#e)"/><path d="M722.217,799.145l-.548,1.949q-1.426.011-1.509,1.033t1.3,1.518q1.414,3.506,4.151,3.369c1.467-.073,3.079-2.866,2.993-6.859a3.64,3.64,0,0,0-.075-.591Q728.518,799.491,722.217,799.145Z" transform="translate(-719.891 -794.332)" fill="#fcc3c2"/></g><path d="M715.646,816.56c-4.026.231-9.545,1.08-10.915,3.207a29.934,29.934,0,0,0-3.534,9.477l5.328.929L705.4,848.006a60.956,60.956,0,0,1,12.646-.7,22.126,22.126,0,0,0,11.3-2.491q-6.212-5.727-5.2-11.685c1.009-5.959-.58-7.008-.982-9.772a40.184,40.184,0,0,1-.376-6.079,20.431,20.431,0,0,0-7.142-.719Z" transform="translate(-701.198 -803.017)" fill="#0073e6"/><path d="M759.857,822.729l-7.939-3.946-5.856,1-10.3-3.007-7.173.638-8.429,20.668,9.226-2.01,9.367,1.417,2.535-.373,2.669,3.255Z" transform="translate(-710.677 -803.147)" fill="#fff"/><path d="M770.691,820.661c-.3.474-10.816,18.4-10.816,18.4l-2.534.374,7.314-17.706Z" transform="translate(-729.27 -805.09)" fill="url(#f)"/><path d="M735.758,816.776c-.3.474-6.377,19.3-6.377,19.3l-9.225,2.01,8.429-20.668Z" transform="translate(-710.677 -803.147)" fill="url(#f)"/><path d="M701.4,841.317a3.1,3.1,0,0,0,2.16,3.386c1.433.44,10.8-1.849,14.039-3.437.635-.311,1.411-.329,1.648-.524.118-.1,2.609-1.091,2.365-1.419-.526-.709-3.283-.293-3.267-.4.039-.253.6-.976.429-1s-1.255,1.126-1.294,1.129a101.518,101.518,0,0,0-10.868,1.828l-5.027-.88Z" transform="translate(-701.284 -813.717)" fill="#fcc3c2"/></g><path d="M715.324,818.052l2.07,11.8-4.167.78-1.6-12.005Z" transform="translate(-697.661 -803.785)" fill="#f6583a"/><path d="M691.385,821.792a4.11,4.11,0,0,1-4.512-3.664,3.287,3.287,0,0,1,2.931-3.609,2.63,2.63,0,0,1,2.887,2.345,2.1,2.1,0,0,1-1.875,2.31,1.684,1.684,0,0,1-1.849-1.5,1.347,1.347,0,0,1,1.2-1.479,1.078,1.078,0,0,1,1.182.961.862.862,0,0,1-.769.946.69.69,0,0,1-.757-.615.552.552,0,0,1,.492-.6" transform="translate(-685.275 -802.012)" fill="none" stroke="#d93f05" stroke-linecap="round" stroke-miterlimit="10" stroke-width="2"/></g><path d="M443.768,935.758a27.095,27.095,0,1,1,54.19,0" transform="translate(-280.947 -642.941)" fill="#eaf0fd"/><path d="M524.75,957.168a10.125,10.125,0,0,1,20.25,0" transform="translate(-321.438 -662.131)" fill="#d5e3fa"/><path d="M1264.33,962.5a22.54,22.54,0,1,1,22.535-22.546A22.541,22.541,0,0,1,1264.33,962.5Zm-.008-31.488a8.947,8.947,0,1,0,.008,0Z" transform="translate(-679.958 -647.32)" fill="#ffbf00"/><g transform="translate(-7.786 34.184)"><path d="M102.691,484.576l14.757-37.731a1.978,1.978,0,0,1,3.742.17l10.973,37.908,6.678-24.194a1.978,1.978,0,0,1,3.839.1l18.69,85.336,11.614-27.837a1.978,1.978,0,0,1,3.915-.027l11.216,62.022L200.556,539.7a1.978,1.978,0,0,1,3.684-.014L254,712.36a1.978,1.978,0,0,1-1.839,2.705H104.533a1.978,1.978,0,0,1-1.978-1.978V485.3a1.971,1.971,0,0,1,.136-.724Z" transform="translate(-102.555 -445.588)" fill="#fff"/><g transform="translate(80.901 150.55)"><line y1="117.561" transform="translate(20.911)" fill="none" stroke="#eaf0fd" stroke-linecap="round" stroke-miterlimit="10" stroke-width="2"/><line x2="20.911" y2="18.441" transform="translate(0 86.749)" fill="none" stroke="#eaf0fd" stroke-linecap="round" stroke-miterlimit="10" stroke-width="2"/><line x2="9.628" y2="7.828" transform="translate(11.283 25.923)" fill="none" stroke="#eaf0fd" stroke-linecap="round" stroke-miterlimit="10" stroke-width="2"/><line x1="15.043" y2="13.915" transform="translate(20.911 58.48)" fill="none" stroke="#eaf0fd" stroke-linecap="round" stroke-miterlimit="10" stroke-width="2"/></g><g transform="translate(46.827 115.074)"><line y1="153.338" transform="translate(20.911)" fill="none" stroke="#eaf0fd" stroke-linecap="round" stroke-miterlimit="10" stroke-width="2"/><line x2="20.911" y2="18.441" transform="translate(0 86.534)" fill="none" stroke="#eaf0fd" stroke-linecap="round" stroke-miterlimit="10" stroke-width="2"/><line x2="9.628" y2="7.828" transform="translate(11.283 61.7)" fill="none" stroke="#eaf0fd" stroke-linecap="round" stroke-miterlimit="10" stroke-width="2"/><line x1="8.168" y2="7.556" transform="translate(20.911 31.999)" fill="none" stroke="#eaf0fd" stroke-linecap="round" stroke-miterlimit="10" stroke-width="2"/></g><g transform="translate(4.577 59.748)"><line y1="208.995" transform="translate(9.628)" fill="none" stroke="#eaf0fd" stroke-linecap="round" stroke-miterlimit="10" stroke-width="2"/><line x2="9.628" y2="7.828" transform="translate(0 117.356)" fill="none" stroke="#eaf0fd" stroke-linecap="round" stroke-miterlimit="10" stroke-width="2"/><line x1="8.168" y2="7.556" transform="translate(9.628 132.656)" fill="none" stroke="#eaf0fd" stroke-linecap="round" stroke-miterlimit="10" stroke-width="2"/></g></g><path d="M1623.1,447.3l-31.831,98.336-26.477-72.921a3.5,3.5,0,0,0-6.784-.159L1537.84,593.47l-33.822-84.046a2.445,2.445,0,0,0-4.762.082l-33.542,105.552L1449.3,573.31a4,4,0,0,0-7.562.318l-54.724,182.915h231.525l11.385-326.868Z" transform="translate(-752.569 -403.447)" fill="#fff"/><g transform="translate(672.65 176.426)"><line y1="153.338" transform="translate(20.911)" fill="none" stroke="#eaf0fd" stroke-linecap="round" stroke-miterlimit="10" stroke-width="2"/><line x2="20.911" y2="18.441" transform="translate(0 111.534)" fill="none" stroke="#eaf0fd" stroke-linecap="round" stroke-miterlimit="10" stroke-width="2"/><line x2="9.628" y2="7.828" transform="translate(11.283 36.74)" fill="none" stroke="#eaf0fd" stroke-linecap="round" stroke-miterlimit="10" stroke-width="2"/><line x1="15.836" y2="15.223" transform="translate(20.911 68.184)" fill="none" stroke="#eaf0fd" stroke-linecap="round" stroke-miterlimit="10" stroke-width="2"/></g><g transform="translate(792.779 129.169)"><line y1="202.358" transform="translate(20.911)" fill="none" stroke="#eaf0fd" stroke-linecap="round" stroke-miterlimit="10" stroke-width="2"/><line x2="20.911" y2="18.441" transform="translate(0 135.554)" fill="none" stroke="#eaf0fd" stroke-linecap="round" stroke-miterlimit="10" stroke-width="2"/><line x2="9.628" y2="7.828" transform="translate(11.283 45.147)" fill="none" stroke="#eaf0fd" stroke-linecap="round" stroke-miterlimit="10" stroke-width="2"/><line x1="15.836" y2="15.223" transform="translate(20.911 103.287)" fill="none" stroke="#eaf0fd" stroke-linecap="round" stroke-miterlimit="10" stroke-width="2"/></g><g transform="translate(735.72 153.017)"><line y1="178.51" transform="translate(13.969)" fill="none" stroke="#eaf0fd" stroke-linecap="round" stroke-miterlimit="10" stroke-width="2"/><line x1="18.447" y2="16.268" transform="translate(13.969 146.133)" fill="none" stroke="#eaf0fd" stroke-linecap="round" stroke-miterlimit="10" stroke-width="2"/><line x1="8.493" y2="6.906" transform="translate(13.969 39.826)" fill="none" stroke="#eaf0fd" stroke-linecap="round" stroke-miterlimit="10" stroke-width="2"/><line x2="13.969" y2="13.429" transform="translate(0 62.29)" fill="none" stroke="#eaf0fd" stroke-linecap="round" stroke-miterlimit="10" stroke-width="2"/></g><path d="M1214.25,991.125H1157a28.625,28.625,0,0,1,57.25,0Z" transform="translate(-637.563 -669.86)" fill="#eaf0fd"/><path d="M1130.57,1009.63a10.125,10.125,0,0,1,20.25,0" transform="translate(-624.348 -688.36)" fill="#d5e3fa"/><g transform="translate(561.607 289.1)"><path d="M1262.31,986.505a22.218,22.218,0,0,1-6.95-1.6,28.666,28.666,0,0,0-13.8-17.36c-.1-.66-.18-1.33-.225-2A22.575,22.575,0,0,1,1262.31,986.5Z" transform="translate(-1241.34 -960.48)" fill="#f5d49a"/><path d="M1324.17,955.42l-15.73.005-14.045.005h-8.355V967.9l.005,13.6h.14l37.99-.01Z" transform="translate(-1263.69 -955.42)" fill="#3f68ff"/></g></g></g></svg>